# xmcd CD database file
#
# Track frame offsets:
#	150
#	20567
#	40535
#	62005
#	85485
#	104932
#	129120
#	155875
#	180540
#	205445
#
# Disc length: 3039 seconds
#
# Revision: 0
# Processed by: cddbd v1.5.1PL0 Copyright (c) Steve Scherf et al.
# Submitted via: CD2WAV32(JP) R3.22
#
DISCID=8a0bdd0a
DTITLE=是方博邦 - DANCER
DYEAR=2002
DGENRE=Fusion
TTITLE0=NILE FUNK
TTITLE1=BAZAAR STREET
TTITLE2=RAIN HEART
TTITLE3=GRAPE SUGAR
TTITLE4=SALAMANDER
TTITLE5=YOUR EYES, YOUR MIND
TTITLE6=RAFFLESIA
TTITLE7=FAIRLY OF THE SEA
TTITLE8=TOKYO PA PA PA
TTITLE9=CRUSH ON YOU
EXTD=
EXTT0=
EXTT1=
EXTT2=
EXTT3=
EXTT4=
EXTT5=
EXTT6=
EXTT7=
EXTT8=
EXTT9=
PLAYORDER=
